<?xml version="1.0"?>
<svg xmlns:rdf="http://www.w3.org/1999/02/22-rdf-syntax-ns#" xmlns="http://www.w3.org/2000/svg" xmlns:cc="http://creativecommons.org/ns#" xmlns:dc="http://purl.org/dc/elements/1.1/" xmlns:svg="http://www.w3.org/2000/svg" id="svg5866" viewBox="0 0 204.8 236.42" version="1.1">
  <defs id="defs5868">
    <filter id="filter3900" color-interpolation-filters="sRGB">
      <feGaussianBlur id="feGaussianBlur3902" stdDeviation="12.868029"/>
    </filter>
  </defs>
  <g id="layer1" transform="translate(5.5505 -826.67)">
    <g id="text3049" fill="#fff">
      <g id="g3056">
        <path id="path4062" filter="url(#filter3900)" d="m567.88-922.36c-0.67373 0-1.2188 0.0147-1.2188 0.0312v585.47c0 0.0409 0.54502 0.0937 1.2188 0.0937h497.56c0.6737 0 1.2187-0.0529 1.2187-0.0937v-585.47c0-0.0166-0.545-0.0312-1.2187-0.0312h-497.56z" fill="#1c241f" transform="matrix(.36456 0 0 .36520 -200.88 1174.8)"/>
        <path id="rect4064" d="m8.1285 870.18h171.56c0.2323 0 0.41932 0.0113 0.41932 0.0254v145.36c0 0.014-0.18702 0.025-0.41932 0.025h-171.56c-0.2323 0-0.41933-0.011-0.41933-0.025v-145.36c0-0.0141 0.18702-0.0254 0.41933-0.0254z" fill="#fff"/>
        <path id="rect4066" d="m8.1285 838.77h171.56c0.2323 0 0.41932 0.003 0.41932 0.006v33.965c0 0.003-0.18702 0.006-0.41932 0.006h-171.56c-0.2323 0-0.41933-0.003-0.41933-0.006v-33.965c0-0.003 0.18702-0.006 0.41933-0.006z" fill="#a40"/>
        <path id="rect4088" d="m7.8178 1015.6h171.56c0.23231 0 0.41932 0 0.41932 0.01v33.965s-0.18701 0.01-0.41932 0.01h-171.56c-0.23231 0-0.41933 0-0.41933-0.01v-33.965s0.18702-0.01 0.41933-0.01z" fill="#a40"/>
        <g id="text4090" fill="#fff" transform="matrix(.37603 0 0 .31617 -117.26 1175.1)">
          <path id="path5591" d="m411.14-426.7v-39.622c0-1.8217-0.48222-3.1076-1.4466-3.8577-0.91086-0.75006-2.6522-1.2591-5.224-1.527v-2.0092h24.513c9.2692 0.00005 16.556 2.3576 21.86 7.0725 5.3043 4.715 7.9565 11.225 7.9566 19.53-0.00005 8.3049-2.6522 15.002-7.9566 20.092-5.3044 5.0901-12.297 7.6351-20.976 7.6351h-25.397v-2.0092c2.3039-0.0536 3.9917-0.509 5.0633-1.3663 1.0716-0.85727 1.6074-2.17 1.6074-3.9381m33.675-19.208c-0.00004-4.715-0.48226-8.787-1.4466-12.216-0.96447-3.4291-2.2504-6.0277-3.8577-7.7958-1.6074-1.7681-3.2952-3.054-5.0633-3.8577-1.7146-0.80364-3.5631-1.2055-5.5455-1.2055-3.1612 0.00005-4.7418 0.93769-4.7418 2.8129v41.31c-0.00002 1.8217 0.32146 3.054 0.96444 3.697 0.64293 0.64295 1.8753 0.96443 3.697 0.96443 10.662 0 15.993-7.903 15.994-23.709"/>
          <path id="path5593" d="m481.59-457.4c5.1972 0.00004 9.5104 1.8753 12.939 5.6259 3.4291 3.697 5.1436 8.3584 5.1436 13.984-0.00004 5.5723-1.7146 10.234-5.1436 13.984-3.4291 3.697-7.7423 5.5455-12.939 5.5455-5.2508 0-9.5908-1.8485-13.02-5.5455-3.4291-3.7506-5.1436-8.4924-5.1436-14.225 0-5.4651 1.7413-10.046 5.224-13.743 3.5362-3.7505 7.8494-5.6258 12.939-5.6259m0.0804 2.4915c-2.4647 0.00003-4.1524 1.2859-5.0633 3.8577-0.91087 2.5719-1.3663 7.394-1.3663 14.467-0.00002 5.8938 0.45541 10.019 1.3663 12.377 0.96441 2.3039 2.6254 3.4559 4.9829 3.4559s3.9917-1.2055 4.9025-3.6166c0.91083-2.4646 1.3663-6.7778 1.3663-12.939-0.00003-6.5903-0.45546-11.171-1.3663-13.743-0.91087-2.5718-2.5183-3.8577-4.8222-3.8577"/>
          <path id="path5595" d="m534.72-428.15 1.4466 1.4466c-2.3575 3.0005-4.7418 5.1704-7.1529 6.5099-2.3575 1.2859-5.0901 1.9289-8.1977 1.9289-4.9829 0-9.1086-1.7949-12.377-5.3848-3.2148-3.5898-4.8222-8.1441-4.8222-13.663-0.00001-5.7866 1.7949-10.582 5.3848-14.386 3.5898-3.8041 8.1173-5.7062 13.582-5.7062 3.5362 0.00004 6.4831 0.85731 8.8406 2.5718 2.411 1.661 3.6166 3.7506 3.6166 6.2688-0.00004 1.5538-0.48225 2.7862-1.4466 3.697-0.96447 0.91088-2.304 1.3663-4.0185 1.3663-2.9469 0.00003-4.4471-1.9288-4.5007-5.7866-0.00002-2.2503-0.13397-3.6166-0.40185-4.0988-0.53582-1.018-1.527-1.527-2.9737-1.527-2.0896 0.00003-3.7506 1.2056-4.9829 3.6166-1.1788 2.3575-1.7681 5.5991-1.7681 9.7247-0.00001 5.4651 1.018 9.8319 3.054 13.1 2.0896 3.2148 4.8757 4.8222 8.3584 4.8222 1.661 0 3.0808-0.32147 4.2596-0.96443 1.2323-0.69653 2.5986-1.8753 4.0988-3.5363"/>
          <path id="path5597" d="m562.45-418.34v-5.224c-2.3575 2.036-4.3668 3.4291-6.0277 4.1792-1.661 0.75012-3.5363 1.1252-5.6259 1.1252-3.322 0-5.9474-0.99122-7.8762-2.9737-1.8753-1.9824-2.8129-4.7418-2.8129-8.278v-20.253c0-1.6609-0.24111-2.7861-0.72332-3.3755-0.48223-0.58935-1.5538-1.0448-3.2148-1.3663v-1.9289h15.109v27.245c-0.00002 2.036 0.32146 3.5095 0.96443 4.4203 0.69652 0.85728 1.8753 1.2859 3.5363 1.2859 2.036 0 4.2328-1.1788 6.5903-3.5363v-22.745c-0.00003-1.7145-0.3483-2.8933-1.0448-3.5362-0.64299-0.64292-1.9557-1.0448-3.9381-1.2056v-1.9289h16.154v28.933c-0.00004 1.7146 0.29465 2.9201 0.88406 3.6166 0.64292 0.64296 1.8485 0.99123 3.6166 1.0448v1.8485l-4.9829 0.56259c-4.4471 0.48222-7.9834 1.1788-10.609 2.0896"/>
          <path id="path5599" d="m602.46-452.02c-1.4467 0.00003-2.9469 0.6162-4.5007 1.8485-1.5002 1.2324-2.2504 2.17-2.2503 2.8129v21.459c-0.00002 1.5538 0.26788 2.6522 0.80369 3.2952 0.53578 0.64296 1.5002 1.0716 2.8933 1.2859v1.9289h-19.289v-1.9289c1.7681-0.32147 2.9469-0.7769 3.5363-1.3663 0.58937-0.64295 0.88405-1.7949 0.88406-3.4559v-23.629c-0.00001-1.6609-0.29469-2.8129-0.88406-3.4559-0.58939-0.64293-1.7681-1.0716-3.5363-1.2859v-1.9289h15.351v6.0277c2.9469-4.6614 6.885-6.9921 11.814-6.9922 2.5182 0.00004 4.5542 0.53584 6.1081 1.6074 1.5538 1.0716 2.9468 2.8666 4.1792 5.3848 2.0896-2.5718 3.9916-4.3667 5.7062-5.3848 1.7681-1.0716 3.8041-1.6074 6.1081-1.6074 3.3219 0.00004 5.9473 1.0448 7.8762 3.1344 1.9824 2.0361 2.9736 4.7686 2.9737 8.1977v20.173c-0.00006 1.7146 0.26783 2.8933 0.80369 3.5363 0.58932 0.58938 1.6609 0.93765 3.2148 1.0448v1.9289h-19.128v-1.9289c1.5538-0.10715 2.5986-0.48221 3.1344-1.1252 0.53575-0.64295 0.80365-1.7949 0.8037-3.4559v-19.449c-0.00005-2.3575-0.34832-4.0452-1.0448-5.0633-0.643-1.0716-1.7146-1.6074-3.2148-1.6074-1.3931 0.00003-2.8933 0.64299-4.5007 1.9289-1.5538 1.2324-2.3308 2.1432-2.3307 2.7326v21.459c-0.00004 1.5538 0.26786 2.679 0.80369 3.3755 0.58934 0.64296 1.5806 1.0448 2.9737 1.2055v1.9289h-18.806v-1.9289c1.5002-0.10715 2.5182-0.48221 3.054-1.1252 0.53577-0.64295 0.80367-1.7949 0.8037-3.4559v-19.449c-0.00003-2.4111-0.3483-4.1256-1.0448-5.1436-0.64299-1.018-1.7414-1.527-3.2952-1.527"/>
          <path id="path5601" d="m658.97-439.08c0.0536 1.4467 0.16073 2.7594 0.32148 3.9381 0.16073 1.1252 0.42863 2.4379 0.8037 3.9381 0.42862 1.4467 0.96442 2.6522 1.6074 3.6166 0.69652 0.96444 1.6074 1.7949 2.7326 2.4915 1.1787 0.69654 2.545 1.0448 4.0988 1.0448 1.7145 0.00001 3.2683-0.40184 4.6614-1.2055 1.393-0.80369 2.8933-2.1968 4.5007-4.1792l1.9289 1.1252c-2.6254 3.7506-5.0901 6.376-7.394 7.8762-2.2504 1.4466-5.0097 2.17-8.2781 2.17-4.9829 0-9.0014-1.7681-12.055-5.3044-3.0005-3.5898-4.5007-8.3048-4.5007-14.145 0-5.8937 1.527-10.636 4.5811-14.225 3.1076-3.6434 7.1797-5.4651 12.216-5.4651 9.1621 0.00004 14.172 6.1081 15.029 18.324h-20.253m10.368-4.1792c-0.0536-1.7145-0.10718-3.0272-0.16074-3.9381-0.0536-0.91083-0.18755-1.9288-0.40185-3.054-0.21434-1.1787-0.50903-2.036-0.88406-2.5718-0.3215-0.58934-0.80372-1.0716-1.4466-1.4466-0.5894-0.4286-1.3395-0.64292-2.2504-0.64295-1.9825 0.00003-3.4023 0.93768-4.2596 2.8129-0.80371 1.8753-1.2591 5.224-1.3663 10.046h10.77v-1.2056"/>
          <path id="path5603" d="m703.01-452.02c-1.5003 0.00003-3.0273 0.64299-4.5811 1.9289-1.5538 1.2324-2.3307 2.1432-2.3307 2.7326v21.459c-0.00002 1.5002 0.26788 2.5986 0.8037 3.2952 0.58935 0.64296 1.6342 1.0716 3.1344 1.2859v1.9289h-19.369v-1.9289c1.8217-0.37505 2.9737-0.85727 3.4559-1.4466 0.53579-0.58937 0.80369-1.7145 0.80369-3.3755v-23.629c0-1.6609-0.2679-2.7861-0.80369-3.3755-0.5358-0.64293-1.6878-1.0984-3.4559-1.3663v-1.9289h15.351v6.0277c2.9469-4.6614 6.7778-6.9921 11.493-6.9922 3.3219 0.00004 5.9473 1.0448 7.8762 3.1344 1.9824 2.0361 2.9736 4.7686 2.9737 8.1977v20.173c-0.00004 1.7146 0.26786 2.8933 0.80369 3.5363 0.53576 0.58938 1.5806 0.93765 3.1344 1.0448v1.9289h-18.887v-1.9289c1.3395-0.16073 2.3039-0.58937 2.8933-1.2859 0.58934-0.69653 0.88403-1.7949 0.88406-3.2952v-19.449c-0.00003-4.4471-1.3931-6.6706-4.1792-6.6707"/>
          <path id="path5605" d="m748.23-456.44v3.5362h-7.5547v24.191c-0.00002 1.6074 0.24109 2.7862 0.72333 3.5363 0.48219 0.69654 1.2859 1.0448 2.4111 1.0448 1.6074 0.00001 3.1344-1.3931 4.5811-4.1792l2.0092 0.88406c-1.661 3.2684-3.4023 5.5991-5.224 6.9922-1.7682 1.3395-3.9917 2.0092-6.6707 2.0092-2.7862-0.00001-4.9829-0.75012-6.5903-2.2504-1.6074-1.5002-2.4111-3.563-2.4111-6.1884v-26.04h-4.1792v-2.17c2.6254-2.1967 4.8757-4.3667 6.751-6.5099 1.9289-2.1431 4.1256-4.9561 6.5903-8.4388h2.0092v13.582h7.5547"/>
        </g>
        <path id="rect4134" d="m36.255 884.72h115.63c7.5497 0 13.628 6.9646 13.628 15.616v85.842c0 8.6511-6.0779 15.616-13.628 15.616h-115.63c-7.5497 0-13.628-6.9646-13.628-15.616v-85.842c0-8.6511 6.0779-15.616 13.628-15.616z" fill="#a40"/>
        <path id="rect4136" d="m42.814 892.56h102.52c6.6932 0 12.082 6.0317 12.082 13.524v74.343c0 7.4922-5.3884 13.524-12.082 13.524h-102.52c-6.6932 0-12.082-6.0316-12.082-13.524v-74.343c0-7.4922 5.3884-13.524 12.082-13.524z" fill="#fff"/>
        <g id="text4138" stroke="#a40" transform="matrix(.34480 0 0 .34480 -117.26 1175.1)" fill="#a40">
          <path id="path5625" stroke="#a40" fill="#a40" d="m464.6-575.86h66.378v-10.878l-14.874-1.11-3.552-3.552v-118.33l3.552-3.108 14.874-1.11v-10.878h-66.378v10.878l14.652 1.11 3.552 3.108v118.33l-3.552 3.552-14.652 1.11v10.878"/>
        </g>
        <path id="rect4142" d="m78.313 926.54h68.673c0.1037 0 0.1872 0.005 0.1872 0.0103v12.786c0 0.006-0.0835 0.0103-0.1872 0.0103h-68.673c-0.10371 0-0.18719-0.005-0.18719-0.0103v-12.786c0-0.006 0.08349-0.0103 0.18719-0.0103z" stroke="#a40" stroke-width=".3448" fill="#a40"/>
        <path id="rect4144" d="m78.313 945.15h68.673c0.1037 0 0.1872 0.005 0.1872 0.0103v12.786c0 0.006-0.0835 0.0103-0.1872 0.0103h-68.673c-0.10371 0-0.18719-0.005-0.18719-0.0103v-12.786c0-0.006 0.08349-0.0103 0.18719-0.0103z" stroke="#a40" stroke-width=".3448" fill="#a40"/>
        <path id="rect4146" d="m78.914 964.36h68.673c0.10371 0 0.1872 0.005 0.1872 0.0103v12.786c0 0.006-0.0835 0.0103-0.1872 0.0103h-68.673c-0.1037 0-0.18719-0.005-0.18719-0.0103v-12.786c0-0.006 0.08349-0.0103 0.18719-0.0103z" stroke="#a40" stroke-width=".3448" fill="#a40"/>
        <path id="rect4148" d="m40.596 900.1h107.56c0.16242 0 0.29318 0.005 0.29318 0.0104v12.786c0 0.006-0.13076 0.0103-0.29318 0.0103h-107.56c-0.16243 0-0.29319-0.005-0.29319-0.0103v-12.786c0-0.006 0.13076-0.0104 0.29319-0.0104z" stroke="#a40" stroke-width=".43152" fill="#a40"/>
        <path id="path3054" fill="#fff" d="m58.591 855.61c0 7.5389 4.849 12.565 12.176 12.565 2.9731 0 5.8046-1.0972 7.9636-3.1147 2.4776-2.3006 3.7872-5.4861 3.7872-9.2378 0-3.9995-1.4865-7.3973-4.2119-9.7333-2.159-1.8405-4.7428-2.7607-7.7867-2.7607-3.2916 0-6.0524 1.0264-8.2822 3.0793-2.4068 2.2298-3.6456 5.3445-3.6456 9.2024m11.999-10.016c3.8579 0 6.6187 3.7872 6.6187 10.335 0 6.2647-2.7961 10.087-6.6895 10.087-3.7871 0-6.6541-3.8226-6.6541-10.335 0-6.3355 2.7961-10.087 6.7248-10.087"/>
        <path id="path3056" fill="#fff" d="m95.116 843.86h-10.335v1.7343l2.159 0.17697 0.5663 0.5663v18.794l-0.5663 0.5663-2.159 0.17697v1.7343h10.335c3.5394 0 6.1939-0.53092 8.3884-2.2298 2.8669-2.1944 4.3535-5.4507 4.3535-9.6272 0-7.4327-4.5304-11.892-12.742-11.892m-2.9377 1.9821h2.0528c5.6276 0 8.353 3.2208 8.353 9.8749 0 6.654-2.7253 9.9103-8.353 9.9103h-2.0528v-19.785"/>
        <path id="path3058" fill="#fff" d="m110.15 867.61h10.441v-1.7343l-2.513-0.17697-0.53091-0.5663v-6.3709c1.0618 0.0708 1.8759 0.10618 2.4068 0.10618 5.9462 0 9.2732-2.9731 9.2732-7.8575 0-5.0967-3.1147-7.1496-9.6625-7.1496h-9.5564v1.7343l2.336 0.17697 0.53091 0.49551v18.865l-0.63709 0.5663-2.0882 0.17697v1.7343m7.3973-10.866v-10.831h1.8405c3.2208 0 4.9552 1.8759 4.9552 5.2383 0 3.7518-1.8405 5.663-5.5215 5.663-0.38933 0-0.81406-0.0354-1.2742-0.0708"/>
      </g>
    </g>
  </g>
  <metadata>
    <rdf:RDF>
      <cc:Work>
        <dc:format>image/svg+xml</dc:format>
        <dc:type rdf:resource="http://purl.org/dc/dcmitype/StillImage"/>
        <cc:license rdf:resource="http://creativecommons.org/licenses/publicdomain/"/>
        <dc:publisher>
          <cc:Agent rdf:about="http://openclipart.org/">
            <dc:title>Openclipart</dc:title>
          </cc:Agent>
        </dc:publisher>
        <dc:title>Presentation web icon</dc:title>
        <dc:date>2011-05-24T13:56:56</dc:date>
        <dc:description>Presentation web icon</dc:description>
        <dc:source>http://openclipart.org/detail/140299/presentation-web-icon-by-gsagri04</dc:source>
        <dc:creator>
          <cc:Agent>
            <dc:title>gsagri04</dc:title>
          </cc:Agent>
        </dc:creator>
        <dc:subject>
          <rdf:Bag>
            <rdf:li>clip art</rdf:li>
            <rdf:li>clipart</rdf:li>
            <rdf:li>document</rdf:li>
            <rdf:li>domain</rdf:li>
            <rdf:li>icon</rdf:li>
            <rdf:li>illustration</rdf:li>
            <rdf:li>impress</rdf:li>
            <rdf:li>office</rdf:li>
            <rdf:li>open</rdf:li>
            <rdf:li>png</rdf:li>
            <rdf:li>presentation</rdf:li>
            <rdf:li>public</rdf:li>
            <rdf:li>slides</rdf:li>
            <rdf:li>speech</rdf:li>
            <rdf:li>svg</rdf:li>
            <rdf:li>web</rdf:li>
          </rdf:Bag>
        </dc:subject>
      </cc:Work>
      <cc:License rdf:about="http://creativecommons.org/licenses/publicdomain/">
        <cc:permits rdf:resource="http://creativecommons.org/ns#Reproduction"/>
        <cc:permits rdf:resource="http://creativecommons.org/ns#Distribution"/>
        <cc:permits rdf:resource="http://creativecommons.org/ns#DerivativeWorks"/>
      </cc:License>
    </rdf:RDF>
  </metadata>
</svg>
